<svg width="42" height="36" viewBox="0 0 42 36" fill="none" xmlns="http://www.w3.org/2000/svg">
<g clip-path="url(#clip0_5_982)">
<path d="M42 26.285C42 28.0584 41.5717 29.6836 40.7161 31.1618C39.8595 32.6399 38.7147 33.8157 37.2797 34.6892C35.8447 35.5638 34.2457 36 32.4838 36C30.9226 36 29.4747 35.653 28.1411 34.9591C26.8065 34.2652 25.6985 33.3278 24.818 32.1448C23.9614 33.3278 22.8663 34.2652 21.5327 34.9591C20.198 35.653 18.7501 36 17.1899 36C15.4529 36 13.8609 35.5638 12.413 34.6892C10.9651 33.8157 9.81332 32.6399 8.9577 31.1618C8.10108 29.6847 7.67377 28.0584 7.67377 26.285V10.9415C7.67377 9.8773 8.51945 9.01395 9.5619 9.01395C10.6043 9.01395 11.45 9.8773 11.45 10.9415V26.285C11.45 27.3645 11.7074 28.3475 12.2242 29.2342C12.7399 30.1209 13.4326 30.828 14.3011 31.3545C15.1697 31.8821 16.1326 32.1448 17.1899 32.1448C18.2473 32.1448 19.1655 31.8943 20.0221 31.3931C20.8778 30.8919 21.5645 30.2173 22.0802 29.3691C22.596 28.521 22.8792 27.5836 22.9299 26.5549V10.9415C22.9299 9.8773 23.7756 9.01395 24.818 9.01395H24.8558C25.8982 9.01395 26.7439 9.8773 26.7439 10.9415V26.285C26.7439 27.3645 27.0013 28.3475 27.518 29.2342C28.0338 30.1209 28.7264 30.828 29.595 31.3545C30.4635 31.8821 31.4265 32.1448 32.4838 32.1448C33.5412 32.1448 34.5041 31.8821 35.3727 31.3545C36.2412 30.828 36.9329 30.1209 37.4496 29.2342C37.9654 28.3475 38.2237 27.3645 38.2237 26.285V10.9415C38.2237 9.8773 39.0694 9.01395 40.1119 9.01395C41.1543 9.01395 42 9.8773 42 10.9415V26.285Z" fill="#02193A"/>
<path d="M0 9.71498C0 7.94161 0.428308 6.31636 1.28393 4.83821C2.14055 3.36007 3.28535 2.18425 4.72033 1.31075C6.15531 0.436241 7.75426 0 9.51618 0C11.0774 0 12.5253 0.346963 13.8589 1.04089C15.1935 1.73482 16.3015 2.67223 17.182 3.85515C18.0386 2.67223 19.1337 1.73482 20.4673 1.04089C21.802 0.346963 23.2499 0 24.8101 0C26.5471 0 28.1391 0.436241 29.587 1.31075C31.0349 2.18425 32.1867 3.36007 33.0423 4.83821C33.8989 6.31534 34.3262 7.94161 34.3262 9.71498V25.0585C34.3262 26.1227 33.4806 26.986 32.4381 26.986C31.3957 26.986 30.55 26.1227 30.55 25.0585V9.71498C30.55 8.63554 30.2926 7.65247 29.7758 6.76579C29.2601 5.8791 28.5674 5.17199 27.6989 4.64546C26.8304 4.11791 25.8674 3.85515 24.8101 3.85515C23.7527 3.85515 22.8345 4.10573 21.9779 4.6069C21.1222 5.10807 20.4355 5.78272 19.9198 6.63086C19.404 7.47899 19.1208 8.4164 19.0701 9.44512V25.0585C19.0701 26.1227 18.2244 26.986 17.182 26.986H17.1442C16.1018 26.986 15.2561 26.1227 15.2561 25.0585V9.71498C15.2561 8.63554 14.9987 7.65247 14.482 6.76579C13.9662 5.8791 13.2736 5.17199 12.405 4.64546C11.5365 4.11791 10.5735 3.85515 9.51618 3.85515C8.45883 3.85515 7.49588 4.11791 6.62734 4.64546C5.7588 5.17199 5.06715 5.8791 4.5504 6.76579C4.03464 7.65247 3.77626 8.63554 3.77626 9.71498V25.0585C3.77626 26.1227 2.93058 26.986 1.88813 26.986C0.845684 26.986 0 26.1227 0 25.0585V9.71498Z" fill="#02193A"/>
</g>
<defs>
<clipPath id="clip0_5_982">
<rect width="42" height="36" fill="white"/>
</clipPath>
</defs>
</svg>
