<svg width="215" height="36" viewBox="0 0 215 36" fill="none" xmlns="http://www.w3.org/2000/svg">
<g clip-path="url(#clip0_5_986)">
<path d="M42 26.285C42 28.0584 41.5717 29.6836 40.7161 31.1618C39.8595 32.6399 38.7147 33.8157 37.2797 34.6892C35.8447 35.5638 34.2457 36 32.4838 36C30.9226 36 29.4747 35.653 28.1411 34.9591C26.8065 34.2652 25.6985 33.3278 24.818 32.1448C23.9614 33.3278 22.8663 34.2652 21.5327 34.9591C20.198 35.653 18.7501 36 17.1899 36C15.4529 36 13.8609 35.5638 12.413 34.6892C10.9651 33.8157 9.81332 32.6399 8.9577 31.1618C8.10108 29.6847 7.67377 28.0584 7.67377 26.285V10.9415C7.67377 9.8773 8.51945 9.01395 9.5619 9.01395C10.6043 9.01395 11.45 9.8773 11.45 10.9415V26.285C11.45 27.3645 11.7074 28.3475 12.2242 29.2342C12.7399 30.1209 13.4326 30.828 14.3011 31.3545C15.1697 31.8821 16.1326 32.1448 17.1899 32.1448C18.2473 32.1448 19.1655 31.8943 20.0221 31.3931C20.8778 30.8919 21.5645 30.2173 22.0802 29.3691C22.596 28.521 22.8792 27.5836 22.9299 26.5549V10.9415C22.9299 9.8773 23.7756 9.01395 24.818 9.01395H24.8558C25.8982 9.01395 26.7439 9.8773 26.7439 10.9415V26.285C26.7439 27.3645 27.0013 28.3475 27.518 29.2342C28.0338 30.1209 28.7264 30.828 29.595 31.3545C30.4635 31.8821 31.4265 32.1448 32.4838 32.1448C33.5412 32.1448 34.5041 31.8821 35.3727 31.3545C36.2412 30.828 36.9329 30.1209 37.4496 29.2342C37.9654 28.3475 38.2237 27.3645 38.2237 26.285V10.9415C38.2237 9.8773 39.0694 9.01395 40.1119 9.01395C41.1543 9.01395 42 9.8773 42 10.9415V26.285Z" fill="#02193A"/>
<path d="M0 9.71498C0 7.94161 0.428308 6.31636 1.28393 4.83821C2.14055 3.36007 3.28535 2.18425 4.72033 1.31075C6.15531 0.436241 7.75426 0 9.51618 0C11.0774 0 12.5253 0.346963 13.8589 1.04089C15.1935 1.73482 16.3015 2.67223 17.182 3.85515C18.0386 2.67223 19.1337 1.73482 20.4673 1.04089C21.802 0.346963 23.2499 0 24.8101 0C26.5471 0 28.1391 0.436241 29.587 1.31075C31.0349 2.18425 32.1867 3.36007 33.0423 4.83821C33.8989 6.31534 34.3262 7.94161 34.3262 9.71498V25.0585C34.3262 26.1227 33.4806 26.986 32.4381 26.986C31.3957 26.986 30.55 26.1227 30.55 25.0585V9.71498C30.55 8.63554 30.2926 7.65247 29.7758 6.76579C29.2601 5.8791 28.5674 5.17199 27.6989 4.64546C26.8304 4.11791 25.8674 3.85515 24.8101 3.85515C23.7527 3.85515 22.8345 4.10573 21.9779 4.6069C21.1222 5.10807 20.4355 5.78272 19.9198 6.63086C19.404 7.47899 19.1208 8.4164 19.0701 9.44512V25.0585C19.0701 26.1227 18.2244 26.986 17.182 26.986H17.1442C16.1018 26.986 15.2561 26.1227 15.2561 25.0585V9.71498C15.2561 8.63554 14.9987 7.65247 14.482 6.76579C13.9662 5.8791 13.2736 5.17199 12.405 4.64546C11.5365 4.11791 10.5735 3.85515 9.51618 3.85515C8.45883 3.85515 7.49588 4.11791 6.62734 4.64546C5.7588 5.17199 5.06715 5.8791 4.5504 6.76579C4.03464 7.65247 3.77626 8.63554 3.77626 9.71498V25.0585C3.77626 26.1227 2.93058 26.986 1.88813 26.986C0.845684 26.986 0 26.1227 0 25.0585V9.71498Z" fill="#02193A"/>
</g>
<path d="M61.5625 13.3203H64.9492V26H61.7969L61.5625 23.0703V13.3203ZM61.9844 20.1055L63.3555 20.082C63.3555 20.9727 63.2656 21.793 63.0859 22.543C62.9141 23.293 62.6484 23.9453 62.2891 24.5C61.9375 25.0547 61.4922 25.4844 60.9531 25.7891C60.4141 26.0938 59.7852 26.2461 59.0664 26.2461C58.5039 26.2461 57.9922 26.1562 57.5312 25.9766C57.0781 25.7969 56.6797 25.5156 56.3359 25.1328C56 24.7422 55.7227 24.2461 55.5039 23.6445L55.1992 20.5977H57.0156C57.0156 21.207 57.0664 21.707 57.168 22.0977C57.2695 22.4883 57.4141 22.793 57.6016 23.0117C57.7891 23.2227 58.0117 23.3711 58.2695 23.457C58.5352 23.5352 58.8281 23.5742 59.1484 23.5742C59.6875 23.5742 60.1406 23.4883 60.5078 23.3164C60.875 23.1445 61.1641 22.9023 61.375 22.5898C61.5938 22.2773 61.75 21.9102 61.8438 21.4883C61.9375 21.0664 61.9844 20.6055 61.9844 20.1055ZM53.6406 13.3203H57.0156V30.875H53.6406V13.3203ZM72.4727 23.293L75.8711 8.9375H77.7695L78.2031 11.3281L74.582 26H72.543L72.4727 23.293ZM70.7266 8.9375L73.5391 23.293L73.3047 26H71.0312L67.2461 8.9375H70.7266ZM81.1914 23.2344L83.9688 8.9375H87.4492L83.6758 26H81.4023L81.1914 23.2344ZM78.8359 8.9375L82.2578 23.3516L82.1641 26H80.125L76.4805 11.3164L76.9492 8.9375H78.8359ZM94.6094 26.2344C93.625 26.2344 92.7422 26.0781 91.9609 25.7656C91.1797 25.4453 90.5156 25.0039 89.9688 24.4414C89.4297 23.8789 89.0156 23.2266 88.7266 22.4844C88.4375 21.7344 88.293 20.9375 88.293 20.0938V19.625C88.293 18.6641 88.4297 17.7852 88.7031 16.9883C88.9766 16.1914 89.3672 15.5 89.875 14.9141C90.3906 14.3281 91.0156 13.8789 91.75 13.5664C92.4844 13.2461 93.3125 13.0859 94.2344 13.0859C95.1328 13.0859 95.9297 13.2344 96.625 13.5312C97.3203 13.8281 97.9023 14.25 98.3711 14.7969C98.8477 15.3438 99.207 16 99.4492 16.7656C99.6914 17.5234 99.8125 18.3672 99.8125 19.2969V20.7031H89.7344V18.4531H96.4961V18.1953C96.4961 17.7266 96.4102 17.3086 96.2383 16.9414C96.0742 16.5664 95.8242 16.2695 95.4883 16.0508C95.1523 15.832 94.7227 15.7227 94.1992 15.7227C93.7539 15.7227 93.3711 15.8203 93.0508 16.0156C92.7305 16.2109 92.4688 16.4844 92.2656 16.8359C92.0703 17.1875 91.9219 17.6016 91.8203 18.0781C91.7266 18.5469 91.6797 19.0625 91.6797 19.625V20.0938C91.6797 20.6016 91.75 21.0703 91.8906 21.5C92.0391 21.9297 92.2461 22.3008 92.5117 22.6133C92.7852 22.9258 93.1133 23.168 93.4961 23.3398C93.8867 23.5117 94.3281 23.5977 94.8203 23.5977C95.4297 23.5977 95.9961 23.4805 96.5195 23.2461C97.0508 23.0039 97.5078 22.6406 97.8906 22.1562L99.5312 23.9375C99.2656 24.3203 98.9023 24.6875 98.4414 25.0391C97.9883 25.3906 97.4414 25.6797 96.8008 25.9062C96.1602 26.125 95.4297 26.2344 94.6094 26.2344ZM101.734 8H105.109V23.0938L104.77 26H101.734V8ZM113.137 19.5312V19.7773C113.137 20.7227 113.035 21.5898 112.832 22.3789C112.637 23.168 112.332 23.8516 111.918 24.4297C111.504 25 110.988 25.4453 110.371 25.7656C109.762 26.0781 109.043 26.2344 108.215 26.2344C107.441 26.2344 106.77 26.0781 106.199 25.7656C105.637 25.4531 105.164 25.0117 104.781 24.4414C104.398 23.8711 104.09 23.2031 103.855 22.4375C103.621 21.6719 103.445 20.8359 103.328 19.9297V19.3906C103.445 18.4844 103.621 17.6484 103.855 16.8828C104.09 16.1172 104.398 15.4492 104.781 14.8789C105.164 14.3086 105.637 13.8672 106.199 13.5547C106.762 13.2422 107.426 13.0859 108.191 13.0859C109.027 13.0859 109.754 13.2461 110.371 13.5664C110.996 13.8789 111.512 14.3242 111.918 14.9023C112.332 15.4727 112.637 16.1523 112.832 16.9414C113.035 17.7227 113.137 18.5859 113.137 19.5312ZM109.762 19.7773V19.5312C109.762 19.0156 109.723 18.5312 109.645 18.0781C109.574 17.6172 109.449 17.2148 109.27 16.8711C109.09 16.5195 108.844 16.2422 108.531 16.0391C108.227 15.8359 107.832 15.7344 107.348 15.7344C106.887 15.7344 106.496 15.8125 106.176 15.9688C105.855 16.125 105.59 16.3438 105.379 16.625C105.176 16.9062 105.023 17.2422 104.922 17.6328C104.82 18.0156 104.758 18.4375 104.734 18.8984V20.4336C104.758 21.0508 104.859 21.5977 105.039 22.0742C105.227 22.543 105.508 22.9141 105.883 23.1875C106.266 23.4531 106.762 23.5859 107.371 23.5859C107.848 23.5859 108.242 23.4922 108.555 23.3047C108.867 23.1172 109.109 22.8516 109.281 22.5078C109.461 22.1641 109.586 21.7617 109.656 21.3008C109.727 20.832 109.762 20.3242 109.762 19.7773ZM128.066 19.918H123.719V17.1758H128.066C128.738 17.1758 129.285 17.0664 129.707 16.8477C130.129 16.6211 130.438 16.3086 130.633 15.9102C130.828 15.5117 130.926 15.0625 130.926 14.5625C130.926 14.0547 130.828 13.582 130.633 13.1445C130.438 12.707 130.129 12.3555 129.707 12.0898C129.285 11.8242 128.738 11.6914 128.066 11.6914H124.938V26H121.422V8.9375H128.066C129.402 8.9375 130.547 9.17969 131.5 9.66406C132.461 10.1406 133.195 10.8008 133.703 11.6445C134.211 12.4883 134.465 13.4531 134.465 14.5391C134.465 15.6406 134.211 16.5938 133.703 17.3984C133.195 18.2031 132.461 18.8242 131.5 19.2617C130.547 19.6992 129.402 19.918 128.066 19.918ZM140.242 8V26H136.855V8H140.242ZM149.875 23.1406V17.4922C149.875 17.0859 149.809 16.7383 149.676 16.4492C149.543 16.1523 149.336 15.9219 149.055 15.7578C148.781 15.5938 148.426 15.5117 147.988 15.5117C147.613 15.5117 147.289 15.5781 147.016 15.7109C146.742 15.8359 146.531 16.0195 146.383 16.2617C146.234 16.4961 146.16 16.7734 146.16 17.0938H142.785C142.785 16.5547 142.91 16.043 143.16 15.5586C143.41 15.0742 143.773 14.6484 144.25 14.2812C144.727 13.9062 145.293 13.6133 145.949 13.4023C146.613 13.1914 147.355 13.0859 148.176 13.0859C149.16 13.0859 150.035 13.25 150.801 13.5781C151.566 13.9062 152.168 14.3984 152.605 15.0547C153.051 15.7109 153.273 16.5312 153.273 17.5156V22.9414C153.273 23.6367 153.316 24.207 153.402 24.6523C153.488 25.0898 153.613 25.4727 153.777 25.8008V26H150.367C150.203 25.6562 150.078 25.2266 149.992 24.7109C149.914 24.1875 149.875 23.6641 149.875 23.1406ZM150.32 18.2773L150.344 20.1875H148.457C148.012 20.1875 147.625 20.2383 147.297 20.3398C146.969 20.4414 146.699 20.5859 146.488 20.7734C146.277 20.9531 146.121 21.1641 146.02 21.4062C145.926 21.6484 145.879 21.9141 145.879 22.2031C145.879 22.4922 145.945 22.7539 146.078 22.9883C146.211 23.2148 146.402 23.3945 146.652 23.5273C146.902 23.6523 147.195 23.7148 147.531 23.7148C148.039 23.7148 148.48 23.6133 148.855 23.4102C149.23 23.207 149.52 22.957 149.723 22.6602C149.934 22.3633 150.043 22.082 150.051 21.8164L150.941 23.2461C150.816 23.5664 150.645 23.8984 150.426 24.2422C150.215 24.5859 149.945 24.9102 149.617 25.2148C149.289 25.5117 148.895 25.7578 148.434 25.9531C147.973 26.1406 147.426 26.2344 146.793 26.2344C145.988 26.2344 145.258 26.0742 144.602 25.7539C143.953 25.4258 143.438 24.9766 143.055 24.4062C142.68 23.8281 142.492 23.1719 142.492 22.4375C142.492 21.7734 142.617 21.1836 142.867 20.668C143.117 20.1523 143.484 19.7188 143.969 19.3672C144.461 19.0078 145.074 18.7383 145.809 18.5586C146.543 18.3711 147.395 18.2773 148.363 18.2773H150.32ZM162.086 13.3203V15.7109H154.703V13.3203H162.086ZM156.531 10.1914H159.906V22.1797C159.906 22.5469 159.953 22.8281 160.047 23.0234C160.148 23.2188 160.297 23.3555 160.492 23.4336C160.688 23.5039 160.934 23.5391 161.23 23.5391C161.441 23.5391 161.629 23.5312 161.793 23.5156C161.965 23.4922 162.109 23.4688 162.227 23.4453L162.238 25.9297C161.949 26.0234 161.637 26.0977 161.301 26.1523C160.965 26.207 160.594 26.2344 160.188 26.2344C159.445 26.2344 158.797 26.1133 158.242 25.8711C157.695 25.6211 157.273 25.2227 156.977 24.6758C156.68 24.1289 156.531 23.4102 156.531 22.5195V10.1914ZM168.309 26H164.91V12.1953C164.91 11.2344 165.098 10.4258 165.473 9.76953C165.855 9.10547 166.391 8.60547 167.078 8.26953C167.773 7.92578 168.598 7.75391 169.551 7.75391C169.863 7.75391 170.164 7.77734 170.453 7.82422C170.742 7.86328 171.023 7.91406 171.297 7.97656L171.262 10.5195C171.113 10.4805 170.957 10.4531 170.793 10.4375C170.629 10.4219 170.438 10.4141 170.219 10.4141C169.812 10.4141 169.465 10.4844 169.176 10.625C168.895 10.7578 168.68 10.957 168.531 11.2227C168.383 11.4883 168.309 11.8125 168.309 12.1953V26ZM170.84 13.3203V15.7109H163.023V13.3203H170.84ZM172.07 19.7891V19.543C172.07 18.6133 172.203 17.7578 172.469 16.9766C172.734 16.1875 173.121 15.5039 173.629 14.9258C174.137 14.3477 174.762 13.8984 175.504 13.5781C176.246 13.25 177.098 13.0859 178.059 13.0859C179.02 13.0859 179.875 13.25 180.625 13.5781C181.375 13.8984 182.004 14.3477 182.512 14.9258C183.027 15.5039 183.418 16.1875 183.684 16.9766C183.949 17.7578 184.082 18.6133 184.082 19.543V19.7891C184.082 20.7109 183.949 21.5664 183.684 22.3555C183.418 23.1367 183.027 23.8203 182.512 24.4062C182.004 24.9844 181.379 25.4336 180.637 25.7539C179.895 26.0742 179.043 26.2344 178.082 26.2344C177.121 26.2344 176.266 26.0742 175.516 25.7539C174.773 25.4336 174.145 24.9844 173.629 24.4062C173.121 23.8203 172.734 23.1367 172.469 22.3555C172.203 21.5664 172.07 20.7109 172.07 19.7891ZM175.445 19.543V19.7891C175.445 20.3203 175.492 20.8164 175.586 21.2773C175.68 21.7383 175.828 22.1445 176.031 22.4961C176.242 22.8398 176.516 23.1094 176.852 23.3047C177.188 23.5 177.598 23.5977 178.082 23.5977C178.551 23.5977 178.953 23.5 179.289 23.3047C179.625 23.1094 179.895 22.8398 180.098 22.4961C180.301 22.1445 180.449 21.7383 180.543 21.2773C180.645 20.8164 180.695 20.3203 180.695 19.7891V19.543C180.695 19.0273 180.645 18.543 180.543 18.0898C180.449 17.6289 180.297 17.2227 180.086 16.8711C179.883 16.5117 179.613 16.2305 179.277 16.0273C178.941 15.8242 178.535 15.7227 178.059 15.7227C177.582 15.7227 177.176 15.8242 176.84 16.0273C176.512 16.2305 176.242 16.5117 176.031 16.8711C175.828 17.2227 175.68 17.6289 175.586 18.0898C175.492 18.543 175.445 19.0273 175.445 19.543ZM189.531 16.0859V26H186.156V13.3203H189.332L189.531 16.0859ZM193.352 13.2383L193.293 16.3672C193.129 16.3438 192.93 16.3242 192.695 16.3086C192.469 16.2852 192.262 16.2734 192.074 16.2734C191.598 16.2734 191.184 16.3359 190.832 16.4609C190.488 16.5781 190.199 16.7539 189.965 16.9883C189.738 17.2227 189.566 17.5078 189.449 17.8438C189.34 18.1797 189.277 18.5625 189.262 18.9922L188.582 18.7812C188.582 17.9609 188.664 17.207 188.828 16.5195C188.992 15.8242 189.23 15.2188 189.543 14.7031C189.863 14.1875 190.254 13.7891 190.715 13.5078C191.176 13.2266 191.703 13.0859 192.297 13.0859C192.484 13.0859 192.676 13.1016 192.871 13.1328C193.066 13.1562 193.227 13.1914 193.352 13.2383ZM198.32 15.9453V26H194.934V13.3203H198.109L198.32 15.9453ZM197.852 19.2148H196.914C196.914 18.332 197.02 17.5195 197.23 16.7773C197.449 16.0273 197.766 15.3789 198.18 14.832C198.602 14.2773 199.121 13.8477 199.738 13.543C200.355 13.2383 201.07 13.0859 201.883 13.0859C202.445 13.0859 202.961 13.1719 203.43 13.3438C203.898 13.5078 204.301 13.7695 204.637 14.1289C204.98 14.4805 205.246 14.9414 205.434 15.5117C205.621 16.0742 205.715 16.75 205.715 17.5391V26H202.34V17.9141C202.34 17.3359 202.262 16.8906 202.105 16.5781C201.949 16.2656 201.727 16.0469 201.438 15.9219C201.156 15.7969 200.816 15.7344 200.418 15.7344C199.98 15.7344 199.598 15.8242 199.27 16.0039C198.949 16.1836 198.684 16.4336 198.473 16.7539C198.262 17.0664 198.105 17.4336 198.004 17.8555C197.902 18.2773 197.852 18.7305 197.852 19.2148ZM205.398 18.8281L204.191 18.9805C204.191 18.1523 204.293 17.3828 204.496 16.6719C204.707 15.9609 205.016 15.3359 205.422 14.7969C205.836 14.2578 206.348 13.8398 206.957 13.543C207.566 13.2383 208.27 13.0859 209.066 13.0859C209.676 13.0859 210.23 13.1758 210.73 13.3555C211.23 13.5273 211.656 13.8047 212.008 14.1875C212.367 14.5625 212.641 15.0547 212.828 15.6641C213.023 16.2734 213.121 17.0195 213.121 17.9023V26H209.734V17.9023C209.734 17.3164 209.656 16.8711 209.5 16.5664C209.352 16.2539 209.133 16.0391 208.844 15.9219C208.562 15.7969 208.227 15.7344 207.836 15.7344C207.43 15.7344 207.074 15.8164 206.77 15.9805C206.465 16.1367 206.211 16.3555 206.008 16.6367C205.805 16.918 205.652 17.2461 205.551 17.6211C205.449 17.9883 205.398 18.3906 205.398 18.8281Z" fill="#02193A"/>
<defs>
<clipPath id="clip0_5_986">
<rect width="42" height="36" fill="white"/>
</clipPath>
</defs>
</svg>
